<mxfile host="65bd71144e">
    <diagram name="network" id="2zGhZ9Ywxfhm8EVLocnH">
        <mxGraphModel dx="1612" dy="1140" grid="1" gridSize="10" guides="1" tooltips="1" connect="1" arrows="1" fold="1" page="0" pageScale="1" pageWidth="827" pageHeight="1169" math="0" shadow="0">
            <root>
                <mxCell id="0"/>
                <mxCell id="1" parent="0"/>
                <mxCell id="B8zo71nitZrql9-a_a1R-3" value="network" parent="0"/>
                <mxCell id="B8zo71nitZrql9-a_a1R-48" value="10.10.0.0/16" style="points=[[0,0],[0.25,0],[0.5,0],[0.75,0],[1,0],[1,0.25],[1,0.5],[1,0.75],[1,1],[0.75,1],[0.5,1],[0.25,1],[0,1],[0,0.75],[0,0.5],[0,0.25]];outlineConnect=0;gradientColor=none;html=1;whiteSpace=wrap;fontSize=12;fontStyle=0;container=0;pointerEvents=0;collapsible=0;recursiveResize=0;shape=mxgraph.aws4.group;grIcon=mxgraph.aws4.group_security_group;grStroke=0;strokeColor=#248814;fillColor=#E9F3E6;verticalAlign=top;align=left;spacingLeft=30;fontColor=#248814;dashed=0;connectable=0;allowArrows=0;" parent="B8zo71nitZrql9-a_a1R-3" vertex="1">
                    <mxGeometry x="-120" y="480" width="560" height="200" as="geometry"/>
                </mxCell>
                <mxCell id="B8zo71nitZrql9-a_a1R-49" value="10.20.10.0/24" style="points=[[0,0],[0.25,0],[0.5,0],[0.75,0],[1,0],[1,0.25],[1,0.5],[1,0.75],[1,1],[0.75,1],[0.5,1],[0.25,1],[0,1],[0,0.75],[0,0.5],[0,0.25]];outlineConnect=0;gradientColor=none;html=1;whiteSpace=wrap;fontSize=12;fontStyle=0;container=0;pointerEvents=0;collapsible=0;recursiveResize=0;shape=mxgraph.aws4.group;grIcon=mxgraph.aws4.group_security_group;grStroke=0;strokeColor=#248814;fillColor=#E9F3E6;verticalAlign=top;align=left;spacingLeft=30;fontColor=#248814;dashed=0;connectable=0;allowArrows=0;" parent="B8zo71nitZrql9-a_a1R-3" vertex="1">
                    <mxGeometry x="-120" y="760" width="240" height="200" as="geometry"/>
                </mxCell>
                <mxCell id="B8zo71nitZrql9-a_a1R-50" value="10.20.20.0/24" style="points=[[0,0],[0.25,0],[0.5,0],[0.75,0],[1,0],[1,0.25],[1,0.5],[1,0.75],[1,1],[0.75,1],[0.5,1],[0.25,1],[0,1],[0,0.75],[0,0.5],[0,0.25]];outlineConnect=0;gradientColor=none;html=1;whiteSpace=wrap;fontSize=12;fontStyle=0;container=0;pointerEvents=0;collapsible=0;recursiveResize=0;shape=mxgraph.aws4.group;grIcon=mxgraph.aws4.group_security_group;grStroke=0;strokeColor=#248814;fillColor=#E9F3E6;verticalAlign=top;align=left;spacingLeft=30;fontColor=#248814;dashed=0;connectable=0;allowArrows=0;" parent="B8zo71nitZrql9-a_a1R-3" vertex="1">
                    <mxGeometry x="200" y="760" width="240" height="200" as="geometry"/>
                </mxCell>
                <mxCell id="51" value="10.20.10.0/24" style="points=[[0,0],[0.25,0],[0.5,0],[0.75,0],[1,0],[1,0.25],[1,0.5],[1,0.75],[1,1],[0.75,1],[0.5,1],[0.25,1],[0,1],[0,0.75],[0,0.5],[0,0.25]];outlineConnect=0;gradientColor=none;html=1;whiteSpace=wrap;fontSize=12;fontStyle=0;container=0;pointerEvents=0;collapsible=0;recursiveResize=0;shape=mxgraph.aws4.group;grIcon=mxgraph.aws4.group_security_group;grStroke=0;strokeColor=#248814;fillColor=#E9F3E6;verticalAlign=top;align=left;spacingLeft=30;fontColor=#248814;dashed=0;connectable=0;allowArrows=0;" parent="B8zo71nitZrql9-a_a1R-3" vertex="1">
                    <mxGeometry x="-120" y="1040" width="120" height="200" as="geometry"/>
                </mxCell>
                <mxCell id="52" value="10.20.20.0/24" style="points=[[0,0],[0.25,0],[0.5,0],[0.75,0],[1,0],[1,0.25],[1,0.5],[1,0.75],[1,1],[0.75,1],[0.5,1],[0.25,1],[0,1],[0,0.75],[0,0.5],[0,0.25]];outlineConnect=0;gradientColor=none;html=1;whiteSpace=wrap;fontSize=12;fontStyle=0;container=0;pointerEvents=0;collapsible=0;recursiveResize=0;shape=mxgraph.aws4.group;grIcon=mxgraph.aws4.group_security_group;grStroke=0;strokeColor=#248814;fillColor=#E9F3E6;verticalAlign=top;align=left;spacingLeft=30;fontColor=#248814;dashed=0;connectable=0;allowArrows=0;" parent="B8zo71nitZrql9-a_a1R-3" vertex="1">
                    <mxGeometry x="80" y="1040" width="360" height="200" as="geometry"/>
                </mxCell>
                <mxCell id="B8zo71nitZrql9-a_a1R-4" value="instances" parent="0"/>
                <mxCell id="67" value="client" style="points=[[0,0],[0.25,0],[0.5,0],[0.75,0],[1,0],[1,0.25],[1,0.5],[1,0.75],[1,1],[0.75,1],[0.5,1],[0.25,1],[0,1],[0,0.75],[0,0.5],[0,0.25]];outlineConnect=0;gradientColor=none;html=1;whiteSpace=wrap;fontSize=12;fontStyle=0;container=0;pointerEvents=0;collapsible=0;recursiveResize=0;shape=mxgraph.aws4.group;grIcon=mxgraph.aws4.group_on_premise;strokeColor=#5A6C86;fillColor=none;verticalAlign=top;align=left;spacingLeft=30;fontColor=#5A6C86;dashed=0;connectable=0;allowArrows=0;dropTarget=0;" parent="B8zo71nitZrql9-a_a1R-4" vertex="1">
                    <mxGeometry x="-80" y="520" width="160" height="120" as="geometry"/>
                </mxCell>
                <mxCell id="68" value="" style="sketch=0;points=[[0,0,0],[0.25,0,0],[0.5,0,0],[0.75,0,0],[1,0,0],[0,1,0],[0.25,1,0],[0.5,1,0],[0.75,1,0],[1,1,0],[0,0.25,0],[0,0.5,0],[0,0.75,0],[1,0.25,0],[1,0.5,0],[1,0.75,0]];outlineConnect=0;fontColor=#232F3E;gradientColor=#F78E04;gradientDirection=north;fillColor=#D05C17;strokeColor=#ffffff;dashed=0;verticalLabelPosition=bottom;verticalAlign=top;align=center;html=1;fontSize=12;fontStyle=0;aspect=fixed;shape=mxgraph.aws4.resourceIcon;resIcon=mxgraph.aws4.ec2;" parent="67" vertex="1">
                    <mxGeometry width="30" height="30" as="geometry"/>
                </mxCell>
                <mxCell id="69" value="server" style="points=[[0,0],[0.25,0],[0.5,0],[0.75,0],[1,0],[1,0.25],[1,0.5],[1,0.75],[1,1],[0.75,1],[0.5,1],[0.25,1],[0,1],[0,0.75],[0,0.5],[0,0.25]];outlineConnect=0;gradientColor=none;html=1;whiteSpace=wrap;fontSize=12;fontStyle=0;container=0;pointerEvents=0;collapsible=0;recursiveResize=0;shape=mxgraph.aws4.group;grIcon=mxgraph.aws4.group_on_premise;strokeColor=#5A6C86;fillColor=none;verticalAlign=top;align=left;spacingLeft=30;fontColor=#5A6C86;dashed=0;connectable=0;allowArrows=0;dropTarget=0;" parent="B8zo71nitZrql9-a_a1R-4" vertex="1">
                    <mxGeometry x="240" y="520" width="160" height="120" as="geometry"/>
                </mxCell>
                <mxCell id="70" value="" style="sketch=0;points=[[0,0,0],[0.25,0,0],[0.5,0,0],[0.75,0,0],[1,0,0],[0,1,0],[0.25,1,0],[0.5,1,0],[0.75,1,0],[1,1,0],[0,0.25,0],[0,0.5,0],[0,0.75,0],[1,0.25,0],[1,0.5,0],[1,0.75,0]];outlineConnect=0;fontColor=#232F3E;gradientColor=#F78E04;gradientDirection=north;fillColor=#D05C17;strokeColor=#ffffff;dashed=0;verticalLabelPosition=bottom;verticalAlign=top;align=center;html=1;fontSize=12;fontStyle=0;aspect=fixed;shape=mxgraph.aws4.resourceIcon;resIcon=mxgraph.aws4.ec2;" parent="69" vertex="1">
                    <mxGeometry width="30" height="30" as="geometry"/>
                </mxCell>
                <mxCell id="71" style="edgeStyle=orthogonalEdgeStyle;rounded=0;orthogonalLoop=1;jettySize=auto;html=1;entryX=0;entryY=0.5;entryDx=0;entryDy=0;" parent="B8zo71nitZrql9-a_a1R-4" source="104" target="73" edge="1">
                    <mxGeometry relative="1" as="geometry">
                        <mxPoint x="210" y="440" as="sourcePoint"/>
                    </mxGeometry>
                </mxCell>
                <mxCell id="73" value="telnetd" style="rounded=0;whiteSpace=wrap;html=1;" parent="B8zo71nitZrql9-a_a1R-4" vertex="1">
                    <mxGeometry x="280" y="560" width="80" height="40" as="geometry"/>
                </mxCell>
                <mxCell id="75" value="client" style="points=[[0,0],[0.25,0],[0.5,0],[0.75,0],[1,0],[1,0.25],[1,0.5],[1,0.75],[1,1],[0.75,1],[0.5,1],[0.25,1],[0,1],[0,0.75],[0,0.5],[0,0.25]];outlineConnect=0;gradientColor=none;html=1;whiteSpace=wrap;fontSize=12;fontStyle=0;container=0;pointerEvents=0;collapsible=0;recursiveResize=0;shape=mxgraph.aws4.group;grIcon=mxgraph.aws4.group_on_premise;strokeColor=#5A6C86;fillColor=none;verticalAlign=top;align=left;spacingLeft=30;fontColor=#5A6C86;dashed=0;connectable=0;allowArrows=0;dropTarget=0;" parent="B8zo71nitZrql9-a_a1R-4" vertex="1">
                    <mxGeometry x="-77.5" y="800" width="157.5" height="120" as="geometry"/>
                </mxCell>
                <mxCell id="76" value="" style="sketch=0;points=[[0,0,0],[0.25,0,0],[0.5,0,0],[0.75,0,0],[1,0,0],[0,1,0],[0.25,1,0],[0.5,1,0],[0.75,1,0],[1,1,0],[0,0.25,0],[0,0.5,0],[0,0.75,0],[1,0.25,0],[1,0.5,0],[1,0.75,0]];outlineConnect=0;fontColor=#232F3E;gradientColor=#F78E04;gradientDirection=north;fillColor=#D05C17;strokeColor=#ffffff;dashed=0;verticalLabelPosition=bottom;verticalAlign=top;align=center;html=1;fontSize=12;fontStyle=0;aspect=fixed;shape=mxgraph.aws4.resourceIcon;resIcon=mxgraph.aws4.ec2;" parent="75" vertex="1">
                    <mxGeometry width="30" height="30" as="geometry"/>
                </mxCell>
                <mxCell id="77" style="edgeStyle=orthogonalEdgeStyle;rounded=0;orthogonalLoop=1;jettySize=auto;html=1;entryX=0;entryY=0.5;entryDx=0;entryDy=0;dashed=1;dashPattern=1 4;" parent="B8zo71nitZrql9-a_a1R-4" source="100" target="85" edge="1">
                    <mxGeometry relative="1" as="geometry">
                        <mxPoint x="112.49999999999977" y="860" as="sourcePoint"/>
                        <mxPoint x="170" y="860" as="targetPoint"/>
                    </mxGeometry>
                </mxCell>
                <mxCell id="79" value="server" style="points=[[0,0],[0.25,0],[0.5,0],[0.75,0],[1,0],[1,0.25],[1,0.5],[1,0.75],[1,1],[0.75,1],[0.5,1],[0.25,1],[0,1],[0,0.75],[0,0.5],[0,0.25]];outlineConnect=0;gradientColor=none;html=1;whiteSpace=wrap;fontSize=12;fontStyle=0;container=0;pointerEvents=0;collapsible=0;recursiveResize=0;shape=mxgraph.aws4.group;grIcon=mxgraph.aws4.group_on_premise;strokeColor=#5A6C86;fillColor=none;verticalAlign=top;align=left;spacingLeft=30;fontColor=#5A6C86;dashed=0;connectable=0;allowArrows=0;dropTarget=0;" parent="B8zo71nitZrql9-a_a1R-4" vertex="1">
                    <mxGeometry x="240" y="800" width="160" height="120" as="geometry"/>
                </mxCell>
                <mxCell id="80" value="" style="sketch=0;points=[[0,0,0],[0.25,0,0],[0.5,0,0],[0.75,0,0],[1,0,0],[0,1,0],[0.25,1,0],[0.5,1,0],[0.75,1,0],[1,1,0],[0,0.25,0],[0,0.5,0],[0,0.75,0],[1,0.25,0],[1,0.5,0],[1,0.75,0]];outlineConnect=0;fontColor=#232F3E;gradientColor=#F78E04;gradientDirection=north;fillColor=#D05C17;strokeColor=#ffffff;dashed=0;verticalLabelPosition=bottom;verticalAlign=top;align=center;html=1;fontSize=12;fontStyle=0;aspect=fixed;shape=mxgraph.aws4.resourceIcon;resIcon=mxgraph.aws4.ec2;" parent="79" vertex="1">
                    <mxGeometry width="30" height="30" as="geometry"/>
                </mxCell>
                <mxCell id="81" style="edgeStyle=orthogonalEdgeStyle;rounded=0;orthogonalLoop=1;jettySize=auto;html=1;exitX=1;exitY=0.5;exitDx=0;exitDy=0;" parent="B8zo71nitZrql9-a_a1R-4" source="82" target="100" edge="1">
                    <mxGeometry relative="1" as="geometry">
                        <mxPoint x="42.49999999999977" y="860" as="targetPoint"/>
                    </mxGeometry>
                </mxCell>
                <mxCell id="82" value="telnet&lt;br&gt;server&lt;br&gt;23" style="rounded=0;whiteSpace=wrap;html=1;" parent="B8zo71nitZrql9-a_a1R-4" vertex="1">
                    <mxGeometry x="-40" y="840" width="80" height="40" as="geometry"/>
                </mxCell>
                <mxCell id="83" value="telnetd" style="rounded=0;whiteSpace=wrap;html=1;" parent="B8zo71nitZrql9-a_a1R-4" vertex="1">
                    <mxGeometry x="280" y="840" width="80" height="40" as="geometry"/>
                </mxCell>
                <mxCell id="84" style="edgeStyle=orthogonalEdgeStyle;rounded=0;orthogonalLoop=1;jettySize=auto;html=1;entryX=0;entryY=0.5;entryDx=0;entryDy=0;" parent="B8zo71nitZrql9-a_a1R-4" source="101" target="83" edge="1">
                    <mxGeometry relative="1" as="geometry"/>
                </mxCell>
                <mxCell id="86" value="client" style="points=[[0,0],[0.25,0],[0.5,0],[0.75,0],[1,0],[1,0.25],[1,0.5],[1,0.75],[1,1],[0.75,1],[0.5,1],[0.25,1],[0,1],[0,0.75],[0,0.5],[0,0.25]];outlineConnect=0;gradientColor=none;html=1;whiteSpace=wrap;fontSize=12;fontStyle=0;container=0;pointerEvents=0;collapsible=0;recursiveResize=0;shape=mxgraph.aws4.group;grIcon=mxgraph.aws4.group_on_premise;strokeColor=#5A6C86;fillColor=none;verticalAlign=top;align=left;spacingLeft=30;fontColor=#5A6C86;dashed=0;connectable=0;allowArrows=0;dropTarget=0;" parent="B8zo71nitZrql9-a_a1R-4" vertex="1">
                    <mxGeometry x="-40" y="1080" width="160" height="120" as="geometry"/>
                </mxCell>
                <mxCell id="87" value="" style="sketch=0;points=[[0,0,0],[0.25,0,0],[0.5,0,0],[0.75,0,0],[1,0,0],[0,1,0],[0.25,1,0],[0.5,1,0],[0.75,1,0],[1,1,0],[0,0.25,0],[0,0.5,0],[0,0.75,0],[1,0.25,0],[1,0.5,0],[1,0.75,0]];outlineConnect=0;fontColor=#232F3E;gradientColor=#F78E04;gradientDirection=north;fillColor=#D05C17;strokeColor=#ffffff;dashed=0;verticalLabelPosition=bottom;verticalAlign=top;align=center;html=1;fontSize=12;fontStyle=0;aspect=fixed;shape=mxgraph.aws4.resourceIcon;resIcon=mxgraph.aws4.ec2;" parent="86" vertex="1">
                    <mxGeometry width="30" height="30" as="geometry"/>
                </mxCell>
                <mxCell id="88" style="edgeStyle=orthogonalEdgeStyle;rounded=0;orthogonalLoop=1;jettySize=auto;html=1;entryX=0;entryY=0.5;entryDx=0;entryDy=0;" parent="B8zo71nitZrql9-a_a1R-4" source="97" target="96" edge="1">
                    <mxGeometry relative="1" as="geometry">
                        <mxPoint x="154.99999999999977" y="1140.0000000000002" as="sourcePoint"/>
                    </mxGeometry>
                </mxCell>
                <mxCell id="89" value="server" style="points=[[0,0],[0.25,0],[0.5,0],[0.75,0],[1,0],[1,0.25],[1,0.5],[1,0.75],[1,1],[0.75,1],[0.5,1],[0.25,1],[0,1],[0,0.75],[0,0.5],[0,0.25]];outlineConnect=0;gradientColor=none;html=1;whiteSpace=wrap;fontSize=12;fontStyle=0;container=0;pointerEvents=0;collapsible=0;recursiveResize=0;shape=mxgraph.aws4.group;grIcon=mxgraph.aws4.group_on_premise;strokeColor=#5A6C86;fillColor=none;verticalAlign=top;align=left;spacingLeft=30;fontColor=#5A6C86;dashed=0;connectable=0;allowArrows=0;dropTarget=0;" parent="B8zo71nitZrql9-a_a1R-4" vertex="1">
                    <mxGeometry x="240" y="1080" width="160" height="120" as="geometry"/>
                </mxCell>
                <mxCell id="90" value="" style="sketch=0;points=[[0,0,0],[0.25,0,0],[0.5,0,0],[0.75,0,0],[1,0,0],[0,1,0],[0.25,1,0],[0.5,1,0],[0.75,1,0],[1,1,0],[0,0.25,0],[0,0.5,0],[0,0.75,0],[1,0.25,0],[1,0.5,0],[1,0.75,0]];outlineConnect=0;fontColor=#232F3E;gradientColor=#F78E04;gradientDirection=north;fillColor=#D05C17;strokeColor=#ffffff;dashed=0;verticalLabelPosition=bottom;verticalAlign=top;align=center;html=1;fontSize=12;fontStyle=0;aspect=fixed;shape=mxgraph.aws4.resourceIcon;resIcon=mxgraph.aws4.ec2;" parent="89" vertex="1">
                    <mxGeometry width="30" height="30" as="geometry"/>
                </mxCell>
                <mxCell id="91" style="edgeStyle=orthogonalEdgeStyle;rounded=0;orthogonalLoop=1;jettySize=auto;html=1;exitX=1;exitY=0.5;exitDx=0;exitDy=0;" parent="B8zo71nitZrql9-a_a1R-4" source="92" target="97" edge="1">
                    <mxGeometry relative="1" as="geometry">
                        <mxPoint x="70" y="1240" as="targetPoint"/>
                    </mxGeometry>
                </mxCell>
                <mxCell id="92" value="telnet&lt;br&gt;server&lt;br&gt;23" style="rounded=0;whiteSpace=wrap;html=1;" parent="B8zo71nitZrql9-a_a1R-4" vertex="1">
                    <mxGeometry y="1120" width="80" height="40" as="geometry"/>
                </mxCell>
                <mxCell id="93" value="telnetd" style="rounded=0;whiteSpace=wrap;html=1;" parent="B8zo71nitZrql9-a_a1R-4" vertex="1">
                    <mxGeometry x="280" y="1120" width="80" height="40" as="geometry"/>
                </mxCell>
                <mxCell id="94" style="html=1;entryX=0;entryY=0.5;entryDx=0;entryDy=0;edgeStyle=orthogonalEdgeStyle;rounded=0;" parent="B8zo71nitZrql9-a_a1R-4" source="105" target="93" edge="1">
                    <mxGeometry relative="1" as="geometry">
                        <mxPoint x="309.9999999999998" y="1130.0000000000002" as="sourcePoint"/>
                    </mxGeometry>
                </mxCell>
                <mxCell id="97" value="10.20.20.3" style="sketch=0;outlineConnect=0;fontColor=#232F3E;gradientColor=none;strokeColor=#232F3E;fillColor=#ffffff;dashed=0;verticalLabelPosition=bottom;verticalAlign=top;align=center;html=1;fontSize=12;fontStyle=0;aspect=fixed;shape=mxgraph.aws4.resourceIcon;resIcon=mxgraph.aws4.elastic_network_interface;labelBackgroundColor=default;" parent="B8zo71nitZrql9-a_a1R-4" vertex="1">
                    <mxGeometry x="100" y="1120" width="40" height="40" as="geometry"/>
                </mxCell>
                <mxCell id="98" value="10.20.10.2" style="sketch=0;outlineConnect=0;fontColor=#232F3E;gradientColor=none;strokeColor=#232F3E;fillColor=#ffffff;dashed=0;verticalLabelPosition=bottom;verticalAlign=top;align=center;html=1;fontSize=12;fontStyle=0;aspect=fixed;shape=mxgraph.aws4.resourceIcon;resIcon=mxgraph.aws4.elastic_network_interface;labelBackgroundColor=default;" parent="B8zo71nitZrql9-a_a1R-4" vertex="1">
                    <mxGeometry x="-60" y="1120" width="40" height="40" as="geometry"/>
                </mxCell>
                <mxCell id="103" style="edgeStyle=orthogonalEdgeStyle;rounded=0;html=1;entryX=0;entryY=0.5;entryDx=0;entryDy=0;" parent="B8zo71nitZrql9-a_a1R-4" source="99" target="72" edge="1">
                    <mxGeometry relative="1" as="geometry"/>
                </mxCell>
                <mxCell id="99" value="10.10.0.2" style="sketch=0;outlineConnect=0;fontColor=#232F3E;gradientColor=none;strokeColor=#232F3E;fillColor=#ffffff;dashed=0;verticalLabelPosition=bottom;verticalAlign=top;align=center;html=1;fontSize=12;fontStyle=0;aspect=fixed;shape=mxgraph.aws4.resourceIcon;resIcon=mxgraph.aws4.elastic_network_interface;labelBackgroundColor=default;" parent="B8zo71nitZrql9-a_a1R-4" vertex="1">
                    <mxGeometry x="60" y="560" width="40" height="40" as="geometry"/>
                </mxCell>
                <mxCell id="100" value="&lt;span style=&quot;color: rgb(0, 0, 0);&quot;&gt;10.20.10.2&lt;/span&gt;" style="sketch=0;outlineConnect=0;fontColor=#232F3E;gradientColor=none;strokeColor=#232F3E;fillColor=#ffffff;dashed=0;verticalLabelPosition=bottom;verticalAlign=top;align=center;html=1;fontSize=12;fontStyle=0;aspect=fixed;shape=mxgraph.aws4.resourceIcon;resIcon=mxgraph.aws4.elastic_network_interface;labelBackgroundColor=default;" parent="B8zo71nitZrql9-a_a1R-4" vertex="1">
                    <mxGeometry x="60" y="840" width="40" height="40" as="geometry"/>
                </mxCell>
                <mxCell id="101" value="&lt;span style=&quot;color: rgb(90, 108, 134); text-align: left;&quot;&gt;10.10.0.2&lt;/span&gt;" style="sketch=0;outlineConnect=0;fontColor=#232F3E;gradientColor=none;strokeColor=#232F3E;fillColor=#ffffff;dashed=0;verticalLabelPosition=bottom;verticalAlign=top;align=center;html=1;fontSize=12;fontStyle=0;aspect=fixed;shape=mxgraph.aws4.resourceIcon;resIcon=mxgraph.aws4.elastic_network_interface;labelBackgroundColor=default;" parent="B8zo71nitZrql9-a_a1R-4" vertex="1">
                    <mxGeometry x="220" y="840" width="40" height="40" as="geometry"/>
                </mxCell>
                <mxCell id="85" value="23" style="rounded=0;whiteSpace=wrap;html=1;" parent="B8zo71nitZrql9-a_a1R-4" vertex="1">
                    <mxGeometry x="210" y="830" width="20" height="20" as="geometry"/>
                </mxCell>
                <mxCell id="106" style="edgeStyle=orthogonalEdgeStyle;rounded=0;html=1;exitX=1;exitY=0.5;exitDx=0;exitDy=0;" parent="B8zo71nitZrql9-a_a1R-4" source="102" target="99" edge="1">
                    <mxGeometry relative="1" as="geometry"/>
                </mxCell>
                <mxCell id="102" value="telnet&lt;br&gt;server&lt;br&gt;23" style="rounded=0;whiteSpace=wrap;html=1;" parent="B8zo71nitZrql9-a_a1R-4" vertex="1">
                    <mxGeometry x="-40" y="560" width="80" height="40" as="geometry"/>
                </mxCell>
                <mxCell id="104" value="10.10.0.2" style="sketch=0;outlineConnect=0;fontColor=#232F3E;gradientColor=none;strokeColor=#232F3E;fillColor=#ffffff;dashed=0;verticalLabelPosition=bottom;verticalAlign=top;align=center;html=1;fontSize=12;fontStyle=0;aspect=fixed;shape=mxgraph.aws4.resourceIcon;resIcon=mxgraph.aws4.elastic_network_interface;labelBackgroundColor=default;" parent="B8zo71nitZrql9-a_a1R-4" vertex="1">
                    <mxGeometry x="220" y="560" width="40" height="40" as="geometry"/>
                </mxCell>
                <mxCell id="105" value="&lt;span style=&quot;color: rgb(0, 0, 0);&quot;&gt;10.20.20.2&lt;/span&gt;" style="sketch=0;outlineConnect=0;fontColor=#232F3E;gradientColor=none;strokeColor=#232F3E;fillColor=#ffffff;dashed=0;verticalLabelPosition=bottom;verticalAlign=top;align=center;html=1;fontSize=12;fontStyle=0;aspect=fixed;shape=mxgraph.aws4.resourceIcon;resIcon=mxgraph.aws4.elastic_network_interface;labelBackgroundColor=default;" parent="B8zo71nitZrql9-a_a1R-4" vertex="1">
                    <mxGeometry x="220" y="1120" width="40" height="40" as="geometry"/>
                </mxCell>
                <mxCell id="96" value="23" style="rounded=0;whiteSpace=wrap;html=1;" parent="B8zo71nitZrql9-a_a1R-4" vertex="1">
                    <mxGeometry x="210" y="1110" width="20" height="20" as="geometry"/>
                </mxCell>
                <mxCell id="72" value="23" style="rounded=0;whiteSpace=wrap;html=1;" parent="B8zo71nitZrql9-a_a1R-4" vertex="1">
                    <mxGeometry x="210" y="550" width="20" height="20" as="geometry"/>
                </mxCell>
            </root>
        </mxGraphModel>
    </diagram>
</mxfile>
